<?xml version="1.0" encoding="iso-8859-1"?>
<!-- Generator: Adobe Illustrator 18.0.0, SVG Export Plug-In . SVG Version: 6.00 Build 0)  -->
<!DOCTYPE svg PUBLIC "-//W3C//DTD SVG 1.1//EN" "http://www.w3.org/Graphics/SVG/1.1/DTD/svg11.dtd">
<svg version="1.1" id="Capa_1" xmlns="http://www.w3.org/2000/svg" xmlns:xlink="http://www.w3.org/1999/xlink" x="0px" y="0px"
	 viewBox="0 0 472.3 472.3" style="enable-background:new 0 0 472.3 472.3;" xml:space="preserve">
<g>
	<path style="fill:#020202;" d="M402.708,61.688l-89.879-0.022c-2.621,0-4.989,1.584-5.987,4.005
		c-1.007,2.421-0.455,5.203,1.398,7.064l33.839,33.838L107.36,342.54l-33.809-33.809c-1.853-1.852-4.643-2.405-7.064-1.406
		c-2.421,1.006-3.997,3.368-3.997,5.989l-0.008,89.862c0,3.582,2.896,6.48,6.48,6.48l89.878,0.022c2.622,0,4.989-1.582,5.987-4.003
		c1.008-2.423,0.455-5.205-1.398-7.066l-33.809-33.808l178.827-180.133l55.862-55.864l33.809,33.809
		c1.853,1.853,4.643,2.406,7.064,1.406c2.421-1.006,3.997-3.366,3.997-5.987l0.008-89.863
		C409.188,64.587,406.29,61.688,402.708,61.688z"/>
	<path style="fill:#020202;" d="M435.279,0H37.022C16.574,0,0,16.573,0,37.022v398.256C0,455.727,16.574,472.3,37.022,472.3h398.258
		c20.447,0,37.021-16.573,37.021-37.022V37.022C472.3,16.573,455.727,0,435.279,0z M440.813,435.278
		c0,3.052-2.482,5.535-5.534,5.535H37.022c-3.052,0-5.535-2.483-5.535-5.535V37.022c0-3.053,2.483-5.536,5.535-5.536h398.258
		c3.051,0,5.534,2.483,5.534,5.536V435.278z"/>
</g>
<g>
</g>
<g>
</g>
<g>
</g>
<g>
</g>
<g>
</g>
<g>
</g>
<g>
</g>
<g>
</g>
<g>
</g>
<g>
</g>
<g>
</g>
<g>
</g>
<g>
</g>
<g>
</g>
<g>
</g>
</svg>
